<?xml version="1.0" standalone="no"?>
<!DOCTYPE svg PUBLIC "-//W3C//DTD SVG 20010904//EN"
 "http://www.w3.org/TR/2001/REC-SVG-20010904/DTD/svg10.dtd">
<svg version="1.0" xmlns="http://www.w3.org/2000/svg"
 width="700.000000pt" height="700.000000pt" viewBox="0 0 700.000000 700.000000"
 preserveAspectRatio="xMidYMid meet">
<metadata>
Created by potrace 1.11, written by Peter Selinger 2001-2013
</metadata>
<g transform="translate(0.000000,700.000000) scale(0.100000,-0.100000)"
fill="#000000" stroke="none">
<path d="M1422 5828 c-205 -29 -395 -192 -465 -397 l-22 -66 -3 -1367 c-3
-1508 -5 -1443 60 -1576 48 -98 169 -218 268 -265 41 -19 99 -40 128 -46 75
-16 4149 -16 4224 0 29 6 87 27 128 46 99 47 220 167 268 265 65 133 63 68 60
1576 l-3 1367 -22 66 c-41 118 -131 236 -240 311 -65 44 -148 75 -236 87 -98
14 -4050 13 -4145 -1z m4116 -482 c60 -31 57 51 57 -1382 l0 -1313 -21 -28
c-11 -15 -32 -34 -45 -40 -35 -18 -4023 -18 -4058 0 -13 6 -34 25 -45 40 l-21
28 0 1313 c0 1428 -3 1350 55 1381 38 21 4038 22 4078 1z"/>
<path d="M2130 5041 c-113 -35 -192 -147 -177 -254 6 -42 641 -1748 679 -1822
48 -96 127 -141 232 -133 74 7 125 34 169 93 18 24 129 205 247 404 118 198
217 360 220 360 3 0 102 -162 220 -360 118 -199 229 -380 247 -404 44 -59 95
-86 169 -93 105 -8 184 37 232 133 12 22 168 432 348 910 303 807 327 875 327
935 1 71 -16 114 -62 163 -86 93 -253 96 -338 5 -34 -36 -55 -89 -298 -738
-125 -333 -230 -610 -234 -617 -4 -7 -90 126 -209 325 -111 185 -213 348 -225
362 -39 45 -94 72 -157 77 -72 7 -129 -13 -182 -64 -21 -20 -127 -186 -240
-374 -119 -200 -205 -333 -209 -326 -4 7 -109 284 -234 617 -124 333 -238 631
-252 663 -48 107 -171 169 -273 138z"/>
<path d="M0 1668 c0 -192 1 -206 24 -254 58 -124 242 -221 466 -244 142 -14
5878 -14 6020 0 224 23 408 120 466 244 23 48 24 62 24 254 l0 202 -3500 0
-3500 0 0 -202z m3837 -64 c15 -24 15 -29 2 -53 l-15 -26 -324 0 -324 0 -15
26 c-13 24 -13 29 2 53 l17 26 320 0 320 0 17 -26z"/>
</g>
</svg>
