<?xml version="1.0" standalone="no"?>
<!DOCTYPE svg PUBLIC "-//W3C//DTD SVG 20010904//EN"
 "http://www.w3.org/TR/2001/REC-SVG-20010904/DTD/svg10.dtd">
<svg version="1.0" xmlns="http://www.w3.org/2000/svg"
 width="700.000000pt" height="700.000000pt" viewBox="0 0 700.000000 700.000000"
 preserveAspectRatio="xMidYMid meet">
<metadata>
Created by potrace 1.11, written by Peter Selinger 2001-2013
</metadata>
<g transform="translate(0.000000,700.000000) scale(0.100000,-0.100000)"
fill="#000000" stroke="none">
<path d="M1802 5355 c-123 -27 -256 -136 -312 -258 -18 -38 -34 -94 -40 -142
-8 -54 -10 -432 -8 -1140 3 -1006 4 -1062 22 -1109 61 -158 173 -266 325 -312
69 -21 3353 -21 3422 0 152 46 264 154 325 312 18 47 19 103 22 1109 2 708 0
1086 -8 1140 -19 146 -102 272 -231 351 -111 67 -21 64 -1824 63 -1337 0
-1641 -3 -1693 -14z m3327 -380 c16 -8 34 -28 40 -46 8 -23 11 -332 11 -1056
0 -1095 1 -1076 -48 -1102 -29 -15 -3235 -15 -3264 0 -49 26 -48 7 -48 1102 0
722 3 1033 11 1056 23 64 -93 60 1667 61 1391 0 1607 -2 1631 -15z"/>
<path d="M2423 4639 c-40 -12 -66 -49 -65 -91 1 -35 517 -1420 541 -1455 31
-42 100 -46 141 -8 14 14 122 186 240 384 118 198 217 360 220 360 3 0 102
-162 220 -360 118 -198 227 -371 242 -385 17 -18 38 -26 62 -27 71 -2 71 -1
351 748 142 380 261 706 265 725 12 64 -26 110 -90 110 -39 0 -66 -14 -82 -43
-6 -12 -113 -292 -237 -623 l-226 -601 -209 349 c-115 192 -222 360 -238 374
-37 31 -79 31 -116 0 -16 -14 -123 -182 -238 -374 l-209 -349 -226 601 c-124
331 -231 611 -237 623 -10 19 -63 55 -74 52 -2 0 -18 -5 -35 -10z"/>
<path d="M700 2035 c0 -144 3 -171 19 -204 27 -52 92 -108 165 -142 135 -63
-28 -59 2616 -59 2644 0 2481 -4 2616 59 73 34 138 90 165 142 16 33 19 60 19
204 l0 165 -2800 0 -2800 0 0 -165z m3070 -55 c8 -14 8 -26 0 -40 -10 -19 -21
-20 -270 -20 -249 0 -260 1 -270 20 -8 14 -8 26 0 40 10 19 21 20 270 20 249
0 260 -1 270 -20z"/>
</g>
</svg>
