<?xml version="1.0" encoding="utf-8"?>
<!DOCTYPE svg PUBLIC "-//W3C//DTD SVG 1.1//EN" "http://www.w3.org/Graphics/SVG/1.1/DTD/svg11.dtd">
<svg version="1.1" id="Layer_1" xmlns="http://www.w3.org/2000/svg" xmlns:xlink="http://www.w3.org/1999/xlink" x="0px" y="0px" width="96px" height="96px" viewBox="-240 -240 2400 2400" enable-background="new 0 0 80 80" xml:space="preserve">
	<circle cx="960" cy="960" r="1200" fill="#FFFFFF"/>
	<g>
		<path fill="#8CC9F0" d="M 416 1344 q -66 0 -113 -47 t -47 -113 v -704 q0 -66 47 -113 t 113 -47 h1088 q 66 0 113 47 t 47 113 v 704 q 0 66 -47 113 t -113 47 h -1088 z M 1760 1408 h 160 v 96 q 0 40 -47 68 t -113 28 h -1600 q -66 0 -113 -28 t -47-68 v -96 h 1760 z"/>
		<path fill="#FFFFFF" d="M 384 480 v 704 q 0 13 9.5 22.5 t 22.5 9.5 h 1088 q 13 0 22.5 -9.5 t 9.5 -22.5 v -704 q 0 -13 -9.5 -22.5 t -22.5 -9.5 h -1088 q -13 0 -22.5 9.5 t -9.5 22.5 z M 1040 1504 q 16 0 16 -16 t -16 -16 h -160 q -16 0 -16 16 t 16 16 h 160 z"/>
	</g>
	<g>
		<path fill="none" stroke="#A89CC8" stroke-width="64" stroke-linecap="round" stroke-linejoin="round" d="M 780 652 m -120 120 v -240 l 120 120 l 120 -120 v 240"/>
		<path fill="none" stroke="#A89CC8" stroke-width="64" stroke-linecap="round" stroke-linejoin="round" d="M 1140 652 m 84.85 -84.85 a 120 120 -45 1 0 0 169.7"/>
		<path fill="none" stroke="#A89CC8" stroke-width="64" stroke-linecap="round" stroke-linejoin="round" d="M 600 1012 m -120 120 v -240 l 240 240 v -240"/>
		<path fill="none" stroke="#A89CC8" stroke-width="64" stroke-linecap="round" stroke-linejoin="round" d="M 960 1012 m -120 -120 v 240 h 240"/>
		<path fill="none" stroke="#A89CC8" stroke-width="64" stroke-linecap="round" stroke-linejoin="round" d="M 1320 1012 m -120 120 l 120 -240 l 120 240 m -210 -60 h 180"/>
	</g>
</svg>
